<?xml version="1.0" standalone="no"?>
<!DOCTYPE svg PUBLIC "-//W3C//DTD SVG 20010904//EN"
 "http://www.w3.org/TR/2001/REC-SVG-20010904/DTD/svg10.dtd">
<svg version="1.0" xmlns="http://www.w3.org/2000/svg"
 width="512.000000pt" height="512.000000pt" viewBox="0 0 512.000000 512.000000"
 preserveAspectRatio="xMidYMid meet">
<metadata>
Created by potrace 1.14, written by Peter Selinger 2001-2017
</metadata>
<g transform="translate(0.000000,512.000000) scale(0.100000,-0.100000)"
fill="#000000" stroke="none">
<path d="M2320 5105 c-52 -8 -108 -16 -125 -20 -16 -3 -43 -8 -60 -11 -39 -7
-248 -71 -300 -93 -517 -214 -904 -606 -1104 -1119 -38 -98 -93 -301 -106
-392 -4 -25 -9 -56 -11 -70 -10 -53 -12 -379 -3 -450 28 -234 97 -467 197
-665 84 -168 70 -147 697 -988 221 -296 417 -557 453 -604 9 -12 129 -173 267
-358 l249 -335 86 0 85 0 340 455 c624 835 777 1040 801 1070 154 199 431 585
474 662 110 195 197 430 226 608 3 20 8 47 10 59 19 98 25 377 11 521 -56 566
-386 1101 -877 1425 -86 57 -296 167 -345 182 -11 4 -54 18 -95 33 -41 15 -82
28 -90 30 -8 2 -53 12 -100 23 -47 12 -103 23 -125 27 -22 3 -56 8 -75 11 -79
12 -389 11 -480 -1z m383 -1309 c141 -32 306 -143 387 -261 152 -222 157 -522
11 -735 -30 -44 -178 -190 -192 -190 -6 0 -23 -9 -38 -20 -54 -38 -180 -72
-281 -76 -147 -6 -260 24 -380 101 -75 48 -200 173 -200 200 0 4 -8 19 -19 33
-19 28 -56 121 -67 169 -3 15 -8 71 -10 123 -12 303 191 572 488 650 72 19
230 22 301 6z"/>
</g>
</svg>
